:SAMPLES-PER-SECOND 24
:FULLY-SPECIFIED
:DEGREES
42
root  5.11029 41.9041 37.1866 -67.594 59.024 -70.8611
RightUpLeg  -63.3666 -18.7026 -6.57127
RightLeg  82.9066 -0.824192 -12.2813
RightFoot  -18.4278 0.361121 7.84082
RightToes  -2.08645e-008 3.77894e-005 6.81332e-007
Spine  17.7711 0.276961 10.1447
Spine1  2.49664 -1.23608 14.4577
HEad  -20.835 11.3583 1.33431
LeftShoulder1  5.9856 -11.9217 -32.8057
LeftArm  -4.06619 16.843 -9.6053
LeftForeArm  125.711 -78.7563 -119.66
LeftHand  -0.569257 -2.08752 9.03421
RightShoulder  3.8348 6.46259 32.5937
RightArm  2.70294 -22.7663 26.6149
RightForeArm  131.937 79.7643 114.932
RightHand  -0.615777 7.09196 -6.06745
LeftUpLeg  -13.6759 -6.12927 21.8662
LeftLeg  32.0767 -2.74585 -1.43772
LeftFoot  5.27179 0.426406 -3.02425
LeftToes  1.24767e-006 1.47042e-008 1.32732e-009
43
root  5.13768 42.1292 37.3717 -73.104 61.4642 -77.1246
RightUpLeg  -61.2996 -18.0925 -6.13157
RightLeg  81.2871 -1.14678 -11.9669
RightFoot  -18.668 0.367526 7.70981
RightToes  -2.08645e-008 3.77894e-005 6.81332e-007
Spine  17.2549 -0.752678 8.21477
Spine1  2.11268 -2.87264 15.0482
HEad  -20.1678 11.3596 0.796698
LeftShoulder1  6.23091 -12.2512 -33.5462
LeftArm  -5.23099 13.1402 -10.0734
LeftForeArm  123.318 -78.9795 -117.405
LeftHand  -0.559623 -1.95441 9.03559
RightShoulder  3.89549 6.50151 33.0507
RightArm  3.28545 -23.8831 26.2862
RightForeArm  136.739 79.1405 120.873
RightHand  -0.581436 6.73741 -5.89981
LeftUpLeg  -15.6905 5.14015 19.2311
LeftLeg  27.6495 5.04997 3.1966
LeftFoot  5.316 1.38167 -9.64325
LeftToes  1.24767e-006 1.47042e-008 1.32732e-009
44
root  5.3238 41.6071 37.4428 -76.5532 63.7953 -81.6659
RightUpLeg  -61.7361 -17.6344 -6.01004
RightLeg  81.6808 -1.0883 -12.1926
RightFoot  -18.7909 0.36292 7.52477
RightToes  -2.08645e-008 3.77894e-005 6.81332e-007
Spine  16.9901 -1.71389 7.32154
Spine1  -0.325787 -3.71741 14.3401
HEad  -19.2772 12.2339 -0.83481
LeftShoulder1  6.4797 -12.4617 -34.572
LeftArm  -5.67325 9.70268 -12.1313
LeftForeArm  115.265 -79.6509 -108.998
LeftHand  -0.558396 -2.29647 8.64108
RightShoulder  3.95757 6.58784 33.3319
RightArm  4.60985 -25.7059 24.7702
RightForeArm  140.394 78.2559 126.877
RightHand  -0.616853 6.70247 -6.25201
LeftUpLeg  -14.3076 17.9539 13.8341
LeftLeg  17.2442 10.5652 3.92063
LeftFoot  0.155762 0.230569 -2.08675
LeftToes  1.24767e-006 1.47042e-008 1.32732e-009
45
root  5.42721 40.636 37.5434 -80.4126 66.6052 -84.8866
RightUpLeg  -62.018 -16.2967 -6.82719
RightLeg  83.4737 -0.743309 -12.7878
RightFoot  -19.0607 0.338015 6.9228
RightToes  -2.08645e-008 3.77894e-005 6.81332e-007
Spine  18.2766 -1.9286 4.45012
Spine1  -1.53914 -4.16279 14.9799
HEad  -20.7598 13.3482 -3.0935
LeftShoulder1  6.80752 -12.7428 -35.8609
LeftArm  -5.9776 4.54072 -15.3074
LeftForeArm  92.1374 -80.1953 -84.3642
LeftHand  -0.638242 -2.75675 9.31094
RightShoulder  3.99179 6.66073 33.3866
RightArm  4.40485 -24.2203 24.4301
RightForeArm  130.169 79.4933 116.232
RightHand  -0.751123 6.8343 -7.45815
LeftUpLeg  -12.316 15.3899 10.0379
LeftLeg  14.3966 14.9392 4.41805
LeftFoot  -4.9738 -0.343513 6.54118
LeftToes  1.24767e-006 1.47042e-008 1.32732e-009
46
root  5.40249 39.8528 37.714 -84.4573 69.3177 -87.5156
RightUpLeg  -61.4506 -13.5164 -6.58992
RightLeg  83.7324 -0.777645 -13.9084
RightFoot  -19.2037 0.279944 5.96431
RightToes  -2.08645e-008 3.77894e-005 6.81332e-007
Spine  18.8599 -1.27398 1.01731
Spine1  0.708092 -4.39629 16.1326
HEad  -24.0441 13.0409 -4.86879
LeftShoulder1  7.18244 -13.1424 -37.0726
LeftArm  -5.06284 -1.75062 -18.8956
LeftForeArm  62.3592 -77.9077 -53.0132
LeftHand  -0.799746 -3.07822 11.1816
RightShoulder  3.99406 6.67254 33.3633
RightArm  1.14823 -20.0155 27.1065
RightForeArm  94.9644 80.4367 75.5914
RightHand  -0.774591 7.12685 -7.51817
LeftUpLeg  -12.6219 5.76447 7.64724
LeftLeg  20.0579 19.9193 8.1769
LeftFoot  -8.97595 -0.0842815 6.3202
LeftToes  1.24767e-006 1.47042e-008 1.32732e-009
47
root  5.41745 39.664 37.8199 -89.1023 70.5936 -92.1584
RightUpLeg  -60.5245 -11.1672 -3.09414
RightLeg  80.2614 -1.67381 -14.057
RightFoot  -19.1446 0.278108 5.97711
RightToes  -2.08645e-008 3.77894e-005 6.81332e-007
Spine  18.3177 -1.06201 0.884813
Spine1  2.42932 -4.4286 15.8592
HEad  -25.8061 11.6043 -5.99107
LeftShoulder1  7.37342 -13.3497 -37.6549
LeftArm  -2.61984 -2.73274 -23.3244
LeftForeArm  51.8556 -75.6337 -41.4822
LeftHand  -0.877249 -3.47805 11.7175
RightShoulder  4.00783 6.67377 33.4934
RightArm  -1.90492 -18.275 30.0885
RightForeArm  72.9874 78.2421 49.8975
RightHand  -0.619918 7.48971 -5.93544
LeftUpLeg  -13.8188 4.99366 6.37553
LeftLeg  22.1716 19.1091 8.65605
LeftFoot  -9.98575 -0.00243214 5.2783
LeftToes  1.24767e-006 1.47042e-008 1.32732e-009
48
root  5.53408 40.0278 37.8797 -98.0808 70.6916 -102.197
RightUpLeg  -58.9659 -10.6577 1.55407
RightLeg  74.0656 -2.63597 -11.589
RightFoot  -19.094 0.365509 7.2991
RightToes  -2.08645e-008 3.77894e-005 6.81332e-007
Spine  18.2514 -1.79611 2.27181
Spine1  1.44581 -4.7788 15.1926
HEad  -25.8666 10.384 -6.79367
LeftShoulder1  7.44518 -13.3905 -37.9624
LeftArm  -0.434275 3.73779 -27.4105
LeftForeArm  59.0636 -77.1007 -47.5742
LeftHand  -0.819886 -3.59522 10.8333
RightShoulder  4.04812 6.70122 33.781
RightArm  -1.95369 -20.3279 30.9389
RightForeArm  73.9693 78.6101 53.2083
RightHand  -0.542026 7.65618 -5.17696
LeftUpLeg  -13.967 5.82095 6.02697
LeftLeg  19.5836 15.3486 6.28971
LeftFoot  -7.55213 -0.134593 5.49082
LeftToes  1.24767e-006 1.47042e-008 1.32732e-009
49
root  5.74718 40.5372 37.987 -110.611 70.3353 -115.644
RightUpLeg  -57.6346 -10.7222 4.48897
RightLeg  68.4273 -2.86499 -8.7293
RightFoot  -19.0076 0.44743 8.5908
RightToes  -2.08645e-008 3.77894e-005 6.81332e-007
Spine  17.7712 -2.51595 2.42157
Spine1  0.756361 -5.45418 15.3316
HEad  -25.8569 9.13699 -6.95479
LeftShoulder1  7.52257 -13.4341 -38.2927
LeftArm  1.67197 12.0109 -29.5984
LeftForeArm  73.9282 -79.2004 -61.6902
LeftHand  -0.718175 -3.33992 9.78817
RightShoulder  4.04104 6.68386 33.7791
RightArm  -0.490308 -23.2708 30.5909
RightForeArm  87.0009 80.073 68.8889
RightHand  -0.598481 7.8475 -5.60357
LeftUpLeg  -12.8047 3.89901 5.56544
LeftLeg  15.6 11.5378 3.92814
LeftFoot  -4.15984 -0.226825 4.07083
LeftToes  1.24767e-006 1.47042e-008 1.32732e-009
50
root  6.02873 40.9695 38.1276 -124.039 69.2679 -129.424
RightUpLeg  -56.7155 -10.4959 5.67941
RightLeg  64.7073 -3.29317 -8.19625
RightFoot  -18.9314 0.46887 8.99119
RightToes  -2.08645e-008 3.77894e-005 6.81332e-007
Spine  16.5646 -2.74958 2.00978
Spine1  1.18577 -5.82054 15.3124
HEad  -25.5414 6.67004 -6.23184
LeftShoulder1  7.5173 -13.4187 -38.3019
LeftArm  4.36496 17.9154 -30.0149
LeftForeArm  78.218 -79.5651 -65.3343
LeftHand  -0.631803 -3.52856 8.47684
RightShoulder  3.98739 6.61897 33.505
RightArm  0.34823 -25.7638 30.2525
RightForeArm  98.2752 80.6019 80.0868
RightHand  -0.59784 7.82228 -5.60831
LeftUpLeg  -10.6777 2.9116 4.53017
LeftLeg  10.8933 7.94934 1.84952
LeftFoot  -0.910113 -0.288103 3.21818
LeftToes  1.24767e-006 1.47042e-008 1.32732e-009
51
root  6.2756 41.2186 38.2694 -137.342 66.5588 -142.343
RightUpLeg  -55.7204 -10.684 6.03638
RightLeg  62.4123 -4.00357 -8.83378
RightFoot  -18.7478 0.448688 8.88435
RightToes  -2.08645e-008 3.77894e-005 6.81332e-007
Spine  16.2054 -2.8908 2.10881
Spine1  0.933007 -5.8413 14.9018
HEad  -24.7021 2.75479 -5.22866
LeftShoulder1  7.36471 -13.2747 -37.794
LeftArm  6.68532 21.8697 -29.5017
LeftForeArm  74.3966 -79.1621 -60.4706
LeftHand  -0.584879 -3.9912 7.50677
RightShoulder  3.96604 6.58682 33.4195
RightArm  0.886254 -27.7817 29.2791
RightForeArm  100.403 80.6355 83.0153
RightHand  -0.544449 7.38911 -5.29493
LeftUpLeg  -8.65426 1.6924 3.33053
LeftLeg  8.15811 4.06365 0.637799
LeftFoot  1.79133 -0.457221 3.876
LeftToes  1.24767e-006 1.47042e-008 1.32732e-009
